<?xml version="1.0" encoding="UTF-8" standalone="no"?>
<svg width="25px" height="20px" viewBox="0 0 25 20" version="1.1" xmlns="http://www.w3.org/2000/svg" xmlns:xlink="http://www.w3.org/1999/xlink" xmlns:sketch="http://www.bohemiancoding.com/sketch/ns">
    <!-- Generator: Sketch 3.4.2 (15855) - http://www.bohemiancoding.com/sketch -->
    <title>twitter1 copy</title>
    <desc>Created with Sketch.</desc>
    <defs></defs>
    <g id="Page-2" stroke="none" stroke-width="1" fill="none" fill-rule="evenodd" sketch:type="MSPage">
        <g id="Main" sketch:type="MSArtboardGroup" transform="translate(-1145.000000, -179.000000)" fill="#010002">
            <g id="twitter1-copy" sketch:type="MSLayerGroup" transform="translate(1145.000000, 179.000000)">
                <path d="M24.5614035,2.36631471 C23.6574059,2.76786846 22.6874296,3.04019762 21.6682902,3.16177817 C22.7089008,2.53709876 23.5054621,1.54626961 23.882994,0.369247605 C22.9068772,0.947740883 21.8294245,1.36780127 20.6813777,1.59551335 C19.7620493,0.612368467 18.4543932,1.77635684e-15 17.0039838,1.77635684e-15 C14.2213969,1.77635684e-15 11.9652357,2.26171198 11.9652357,5.04961589 C11.9652357,5.44501417 12.0097433,5.83119937 12.0957083,6.20048721 C7.90878485,5.98967249 4.19611395,3.97876565 1.71127444,0.923119012 C1.27691414,1.66780992 1.02981478,2.53552972 1.02981478,3.46178682 C1.02981478,5.21424448 1.92000658,6.76051408 3.27064518,7.66516669 C2.4449071,7.6374872 1.66829191,7.40977512 0.988397441,7.0312742 L0.988397441,7.09435769 C0.988397441,9.54069348 2.72579851,11.5823777 5.02951745,12.0470551 C4.60743787,12.1609112 4.16236204,12.2239947 3.70191523,12.2239947 C3.37655637,12.2239947 3.06191304,12.1916885 2.75341007,12.1301338 C3.39493732,14.1379831 5.25514561,15.5980761 7.45913385,15.6381068 C5.73553855,16.9920683 3.56225212,17.7967448 1.20174488,17.7967448 C0.795036272,17.7967448 0.394427889,17.772123 8.8817842e-15,17.7275059 C2.23007474,19.1630173 4.87761375,20 7.72312923,20 C16.9917833,20 22.058183,12.3040157 22.058183,5.62967821 L22.041287,4.9757905 C23.0312095,4.26799217 23.8876093,3.37870812 24.5614035,2.36631471 L24.5614035,2.36631471 Z" id="Shape" sketch:type="MSShapeGroup"></path>
            </g>
        </g>
    </g>
</svg>